<?xml version="1.0" encoding="UTF-8"?>
<svg xmlns="http://www.w3.org/2000/svg" width="1920" height="1080" viewBox="0 0 1920 1080">
  <defs>
    <radialGradient id="bgGrad" cx="50%" cy="45%" r="70%">
      <stop offset="0%" stop-color="#0f1322"/>
      <stop offset="60%" stop-color="#0b0f16"/>
      <stop offset="100%" stop-color="#070a10"/>
    </radialGradient>

    <style><![CDATA[
      .st-a { stroke:#60a5fa; stroke-opacity:.18; }
      .st-b { stroke:#a78bfa; stroke-opacity:.16; }
      .st-c { stroke:#22c55e; stroke-opacity:.16; }
      .st-d { stroke:#0ea5e9; stroke-opacity:.16; }
      .st-e { stroke:#fde68a; stroke-opacity:.14; }
      .st-f { stroke:#f59e0b; stroke-opacity:.14; }
      .thin { stroke-width:1.5; fill:none; stroke-linecap:round; stroke-linejoin:round; }
      .mid  { stroke-width:2;   fill:none; stroke-linecap:round; stroke-linejoin:round; }
      .fill-soft { fill:#1b2436; fill-opacity:.12; stroke-width:1.5; }
    ]]></style>

    <g id="warli-dancer" transform="translate(0,0)">
      <circle cx="0" cy="-12" r="3.2" class="st-a thin"/>
      <path d="M -8 -8 L 8 -8 L 0 -28 Z" class="st-b thin"/>
      <path d="M -10 -8 L 10 -8 L 0 10 Z" class="st-c thin"/>
      <path d="M -12 -14 L 0 -8 L 12 -14" class="st-d thin"/>
      <path d="M -4 10 L -10 22 M 4 10 L 10 22" class="st-a thin"/>
    </g>

    <g id="warli-hut">
      <path d="M -20 10 L 20 10 L 20 -10 L -20 -10 Z" class="st-e mid"/>
      <path d="M -26 -10 L 0 -28 L 26 -10" class="st-f mid"/>
      <rect x="-6" y="-2" width="12" height="12" class="fill-soft st-b"/>
    </g>

    <g id="leaf">
      <path d="M 0 -16 C 10 -12, 14 -4, 0 16 C -14 -4, -10 -12, 0 -16 Z" class="st-c mid"/>
      <path d="M 0 -14 L 0 14 M 0 -4 L 6 2 M 0 4 L -6 10" class="st-c thin"/>
    </g>

    <g id="wheel">
      <circle cx="0" cy="0" r="12" class="st-a mid"/>
      <path d="M 0 -12 L 0 12 M -12 0 L 12 0 M -8 -8 L 8 8 M 8 -8 L -8 8" class="st-a thin"/>
    </g>

    <pattern id="chevrons" patternUnits="userSpaceOnUse" width="32" height="16">
      <path d="M 0 16 L 8 8 L 16 16 L 24 8 L 32 16" class="st-d thin"/>
    </pattern>

    <pattern id="tile" patternUnits="userSpaceOnUse" width="320" height="320">
      <rect width="320" height="320" fill="none"/>
      <rect x="0" y="0" width="320" height="16" fill="url(#chevrons)" opacity=".25"/>
      <rect x="0" y="304" width="320" height="16" fill="url(#chevrons)" opacity=".25"/>

      <g opacity="1">
        <g transform="translate(60,80) scale(1)"><use href="#warli-dancer"/></g>
        <g transform="translate(240,70) scale(0.9) rotate(8)"><use href="#warli-dancer"/></g>
        <g transform="translate(110,200) scale(1.05) rotate(-6)"><use href="#warli-dancer"/></g>

        <g transform="translate(52,248)"><use href="#warli-hut"/></g>
        <g transform="translate(268,230) scale(0.9)"><use href="#warli-hut"/></g>

        <g transform="translate(170,120) rotate(-18)"><use href="#leaf"/></g>
        <g transform="translate(290,150) rotate(22) scale(0.9)"><use href="#leaf"/></g>
        <g transform="translate(40,150) rotate(12) scale(0.9)"><use href="#leaf"/></g>

        <g transform="translate(160,260)"><use href="#wheel"/></g>
        <g transform="translate(220,110) scale(0.85)"><use href="#wheel"/></g>
      </g>

      <g opacity=".22" class="st-b">
        <path d="M 40 60 A 60 60 0 0 1 120 60" fill="none" stroke="#a78bfa" stroke-width="2" stroke-dasharray="2 8" stroke-linecap="round"/>
        <path d="M 200 260 A 70 70 0 0 0 290 250" fill="none" stroke="#60a5fa" stroke-width="2" stroke-dasharray="2 9" stroke-linecap="round"/>
      </g>
    </pattern>
  </defs>

  <rect width="100%" height="100%" fill="url(#bgGrad)"/>
  <rect width="100%" height="100%" fill="url(#tile)" opacity=".55"/>

  <radialGradient id="vign" cx="50%" cy="50%" r="75%">
    <stop offset="60%" stop-color="rgba(0,0,0,0)"/>
    <stop offset="100%" stop-color="rgba(0,0,0,0.35)"/>
  </radialGradient>
  <rect width="100%" height="100%" fill="url(#vign)"/>
</svg>
